{"accessors":[{"bufferView":0,"componentType":5123,"count":4386,"max":[2775],"min":[0],"type":"SCALAR"},{"bufferView":1,"componentType":5126,"count":2776,"max":[2.6168155670166016,1.0152486562728882,2.6168150901794434],"min":[-2.6168148517608643,-1.1412372589111328,-2.6168153285980225],"type":"VEC3"},{"bufferView":2,"componentType":5126,"count":2776,"max":[0.9951847791671753,1.0,0.9951850771903992],"min":[-0.9951847791671753,-1.0,-0.9951847791671753],"type":"VEC3"},{"bufferView":3,"componentType":5126,"count":2776,"max":[1.0,0.8750000596046448],"min":[0.0,0.0],"type":"VEC2"},{"bufferView":4,"componentType":5123,"count":624,"max":[405],"min":[0],"type":"SCALAR"},{"bufferView":5,"componentType":5126,"count":406,"max":[0.9999997019767761,0.7071067690849304,0.9999993443489075],"min":[-0.9999990463256836,-0.19509032368659973,-1.0],"type":"VEC3"},{"bufferView":6,"componentType":5126,"count":406,"max":[0.9904384613037109,0.6325623393058777,0.9904386401176453],"min":[-0.9904386401176453,-0.09755003452301025,-0.9904382824897766],"type":"VEC3"},{"bufferView":7,"componentType":5126,"count":406,"max":[1.0,0.5625],"min":[0.0,0.24999994039535522],"type":"VEC2"},{"bufferView":8,"componentType":5123,"count":528,"max":[349],"min":[0],"type":"SCALAR"},{"bufferView":9,"componentType":5126,"count":350,"max":[0.7071067094802856,0.7235313057899475,0.7071066498756409],"min":[-0.7071065902709961,0.7071067690849304,-0.7071065902709961],"type":"VEC3"},{"bufferView":10,"componentType":5126,"count":350,"max":[0.9951847791671753,0.7715082764625549,0.9951848983764648],"min":[-0.9951847791671753,0.0,-0.9951847791671753],"type":"VEC3"},{"bufferView":11,"componentType":5126,"count":350,"max":[1.0,0.2500000596046448],"min":[0.0,0.2417454719543457],"type":"VEC2"},{"bufferView":12,"componentType":5121,"count":264,"max":[151],"min":[0],"type":"SCALAR"},{"bufferView":13,"componentType":5126,"count":152,"max":[0.9807851314544678,-0.19509032368659973,0.9807849526405334],"min":[-0.9807848334312439,-0.24163466691970825,-0.9807852506637573],"type":"VEC3"},{"bufferView":14,"componentType":5126,"count":152,"max":[0.9527181386947632,1.0,0.9527183771133423],"min":[-0.9527184367179871,-0.2890051603317261,-0.9527181386947632],"type":"VEC3"},{"bufferView":15,"componentType":5126,"count":152,"max":[1.0,0.578007161617279],"min":[0.0,0.5625],"type":"VEC2"},{"bufferView":16,"componentType":5123,"count":5106,"max":[2711],"min":[0],"type":"SCALAR"},{"bufferView":17,"componentType":5126,"count":2712,"max":[0.9999997019767761,1.0,0.9999993443489075],"min":[-0.9999990463256836,-0.8314695954322815,-1.0],"type":"VEC3"},{"bufferView":18,"componentType":5126,"count":2712,"max":[0.9951848983764648,1.0,0.9951853156089783],"min":[-0.9951847791671753,-1.0,-0.9951847791671753],"type":"VEC3"},{"bufferView":19,"componentType":5126,"count":2712,"max":[1.0,0.8125001788139343],"min":[0.0,0.0],"type":"VEC2"},{"bufferView":20,"componentType":5121,"count":264,"max":[151],"min":[0],"type":"SCALAR"},{"bufferView":21,"componentType":5126,"count":152,"max":[0.9807851314544678,-0.19509032368659973,0.9807849526405334],"min":[-0.9807848334312439,-0.24163466691970825,-0.9807852506637573],"type":"VEC3"},{"bufferView":22,"componentType":5126,"count":152,"max":[0.9527181386947632,1.0,0.9527183771133423],"min":[-0.9527184367179871,-0.2890051603317261,-0.9527181386947632],"type":"VEC3"},{"bufferView":23,"componentType":5126,"count":152,"max":[1.0,0.578007161617279],"min":[0.0,0.5625],"type":"VEC2"},{"bufferView":24,"componentType":5123,"count":5106,"max":[2711],"min":[0],"type":"SCALAR"},{"bufferView":25,"componentType":5126,"count":2712,"max":[0.9999997019767761,1.0,0.9999993443489075],"min":[-0.9999990463256836,-0.8314695954322815,-1.0],"type":"VEC3"},{"bufferView":26,"componentType":5126,"count":2712,"max":[0.9951848983764648,1.0,0.9951853156089783],"min":[-0.9951847791671753,-1.0,-0.9951847791671753],"type":"VEC3"},{"bufferView":27,"componentType":5126,"count":2712,"max":[1.0,0.8125001788139343],"min":[0.0,0.0],"type":"VEC2"},{"bufferView":28,"componentType":5121,"count":264,"max":[151],"min":[0],"type":"SCALAR"},{"bufferView":29,"componentType":5126,"count":152,"max":[0.9807851314544678,-0.19509032368659973,0.9807849526405334],"min":[-0.9807848334312439,-0.24163466691970825,-0.9807852506637573],"type":"VEC3"},{"bufferView":30,"componentType":5126,"count":152,"max":[0.9527181386947632,1.0,0.9527183771133423],"min":[-0.9527184367179871,-0.2890051603317261,-0.9527181386947632],"type":"VEC3"},{"bufferView":31,"componentType":5126,"count":152,"max":[1.0,0.578007161617279],"min":[0.0,0.5625],"type":"VEC2"},{"bufferView":32,"componentType":5123,"count":5106,"max":[2711],"min":[0],"type":"SCALAR"},{"bufferView":33,"componentType":5126,"count":2712,"max":[0.9999997019767761,1.0,0.9999993443489075],"min":[-0.9999990463256836,-0.8314695954322815,-1.0],"type":"VEC3"},{"bufferView":34,"componentType":5126,"count":2712,"max":[0.9951848983764648,1.0,0.9951853156089783],"min":[-0.9951847791671753,-1.0,-0.9951847791671753],"type":"VEC3"},{"bufferView":35,"componentType":5126,"count":2712,"max":[1.0,0.8125001788139343],"min":[0.0,0.0],"type":"VEC2"},{"bufferView":36,"componentType":5121,"count":264,"max":[151],"min":[0],"type":"SCALAR"},{"bufferView":37,"componentType":5126,"count":152,"max":[0.9807851314544678,-0.19509032368659973,0.9807849526405334],"min":[-0.9807848334312439,-0.24163466691970825,-0.9807852506637573],"type":"VEC3"},{"bufferView":38,"componentType":5126,"count":152,"max":[0.9527181386947632,1.0,0.9527183771133423],"min":[-0.9527184367179871,-0.2890051603317261,-0.9527181386947632],"type":"VEC3"},{"bufferView":39,"componentType":5126,"count":152,"max":[1.0,0.578007161617279],"min":[0.0,0.5625],"type":"VEC2"},{"bufferView":40,"componentType":5123,"count":5106,"max":[2711],"min":[0],"type":"SCALAR"},{"bufferView":41,"componentType":5126,"count":2712,"max":[0.9999997019767761,1.0,0.9999993443489075],"min":[-0.9999990463256836,-0.8314695954322815,-1.0],"type":"VEC3"},{"bufferView":42,"componentType":5126,"count":2712,"max":[0.9951848983764648,1.0,0.9951853156089783],"min":[-0.9951847791671753,-1.0,-0.9951847791671753],"type":"VEC3"},{"bufferView":43,"componentType":5126,"count":2712,"max":[1.0,0.8125001788139343],"min":[0.0,0.0],"type":"VEC2"},{"bufferView":44,"componentType":5121,"count":6,"max":[3],"min":[0],"type":"SCALAR"},{"bufferView":45,"componentType":5126,"count":4,"max":[1.0,0.0,1.0],"min":[-1.0,0.0,-1.0],"type":"VEC3"},{"bufferView":46,"componentType":5126,"count":4,"max":[0.0,1.0,-0.0],"min":[0.0,1.0,-0.0],"type":"VEC3"},{"bufferView":47,"componentType":5126,"count":4,"max":[1.0,1.0],"min":[0.0,0.0],"type":"VEC2"}],"asset":{"generator":"Verge3D for Blender v4.9.0","version":"2.0"},"bufferViews":[{"buffer":0,"byteLength":8772,"byteOffset":0,"target":34963},{"buffer":0,"byteLength":33312,"byteOffset":8772,"target":34962},{"buffer":0,"byteLength":33312,"byteOffset":42084,"target":34962},{"buffer":0,"byteLength":22208,"byteOffset":75396,"target":34962},{"buffer":0,"byteLength":1248,"byteOffset":97604,"target":34963},{"buffer":0,"byteLength":4872,"byteOffset":98852,"target":34962},{"buffer":0,"byteLength":4872,"byteOffset":103724,"target":34962},{"buffer":0,"byteLength":3248,"byteOffset":108596,"target":34962},{"buffer":0,"byteLength":1056,"byteOffset":111844,"target":34963},{"buffer":0,"byteLength":4200,"byteOffset":112900,"target":34962},{"buffer":0,"byteLength":4200,"byteOffset":117100,"target":34962},{"buffer":0,"byteLength":2800,"byteOffset":121300,"target":34962},{"buffer":0,"byteLength":264,"byteOffset":124100,"target":34963},{"buffer":0,"byteLength":1824,"byteOffset":124364,"target":34962},{"buffer":0,"byteLength":1824,"byteOffset":126188,"target":34962},{"buffer":0,"byteLength":1216,"byteOffset":128012,"target":34962},{"buffer":0,"byteLength":10212,"byteOffset":129228,"target":34963},{"buffer":0,"byteLength":32544,"byteOffset":139440,"target":34962},{"buffer":0,"byteLength":32544,"byteOffset":171984,"target":34962},{"buffer":0,"byteLength":21696,"byteOffset":204528,"target":34962},{"buffer":0,"byteLength":264,"byteOffset":226224,"target":34963},{"buffer":0,"byteLength":1824,"byteOffset":226488,"target":34962},{"buffer":0,"byteLength":1824,"byteOffset":228312,"target":34962},{"buffer":0,"byteLength":1216,"byteOffset":230136,"target":34962},{"buffer":0,"byteLength":10212,"byteOffset":231352,"target":34963},{"buffer":0,"byteLength":32544,"byteOffset":241564,"target":34962},{"buffer":0,"byteLength":32544,"byteOffset":274108,"target":34962},{"buffer":0,"byteLength":21696,"byteOffset":306652,"target":34962},{"buffer":0,"byteLength":264,"byteOffset":328348,"target":34963},{"buffer":0,"byteLength":1824,"byteOffset":328612,"target":34962},{"buffer":0,"byteLength":1824,"byteOffset":330436,"target":34962},{"buffer":0,"byteLength":1216,"byteOffset":332260,"target":34962},{"buffer":0,"byteLength":10212,"byteOffset":333476,"target":34963},{"buffer":0,"byteLength":32544,"byteOffset":343688,"target":34962},{"buffer":0,"byteLength":32544,"byteOffset":376232,"target":34962},{"buffer":0,"byteLength":21696,"byteOffset":408776,"target":34962},{"buffer":0,"byteLength":264,"byteOffset":430472,"target":34963},{"buffer":0,"byteLength":1824,"byteOffset":430736,"target":34962},{"buffer":0,"byteLength":1824,"byteOffset":432560,"target":34962},{"buffer":0,"byteLength":1216,"byteOffset":434384,"target":34962},{"buffer":0,"byteLength":10212,"byteOffset":435600,"target":34963},{"buffer":0,"byteLength":32544,"byteOffset":445812,"target":34962},{"buffer":0,"byteLength":32544,"byteOffset":478356,"target":34962},{"buffer":0,"byteLength":21696,"byteOffset":510900,"target":34962},{"buffer":0,"byteLength":6,"byteOffset":532596,"target":34963},{"buffer":0,"byteLength":48,"byteOffset":532604,"target":34962},{"buffer":0,"byteLength":48,"byteOffset":532652,"target":34962},{"buffer":0,"byteLength":32,"byteOffset":532700,"target":34962}],"buffers":[{"byteLength":532732,"uri":"Nave tin tin.bin"}],"cameras":[{"extensions":{"S8S_v3d_camera":{"controls":"ORBIT","enablePan":true,"moveSpeed":1.0,"orbitMaxDistance":100.0,"orbitMaxPolarAngle":3.1415927410125732,"orbitMaxZoom":100.0,"orbitMinDistance":0.0,"orbitMinPolarAngle":0.0,"orbitMinZoom":0.009999999776482582,"orbitTarget":[0.0,0.0,-0.0],"rotateSpeed":1.0,"viewportFitInitialAspect":1.7777777777777777,"viewportFitType":"AUTO"}},"name":"Camera","perspective":{"aspectRatio":1.7777777777777777,"yfov":0.5353843475294856,"zfar":100.0,"znear":0.10000000149011612},"type":"perspective"}],"extensions":{"S8S_v3d_lights":{"lights":[{"color":[1.0,1.0,1.0],"decay":2,"distance":31.622776955095866,"intensity":1000.0,"name":"Light","power":1000.0,"profile":"blender","shadow":{"bias":-0.0018,"cameraFar":31.622776955095866,"cameraFov":0,"cameraNear":0.05000000074505806,"enabled":true,"expBias":2.5,"mapSize":512,"radius":1.0,"slopeScaledBias":2.5},"type":"point"},{"color":[1.0,1.0,1.0],"intensity":10.0,"name":"Sol","profile":"blender","shadow":{"bias":-0.0018,"cameraFar":100,"cameraFov":0,"cameraNear":0.1,"csm":{"count":4,"exponent":0.800000011920929,"fade":0.10000000149011612,"lightMargin":0.0,"maxDistance":1000.0},"enabled":true,"expBias":2.5,"mapSize":1024,"radius":1.0,"slopeScaledBias":2.5},"type":"directional"}]}},"extensionsUsed":["S8S_v3d_materials","S8S_v3d_camera","S8S_v3d_lights","S8S_v3d_mesh","S8S_v3d_node","S8S_v3d_scene"],"materials":[{"alphaMode":"OPAQUE","extensions":{"S8S_v3d_materials":{"gtaoVisible":true,"materialIndex":0,"nodeGraph":{"edges":[{"fromNode":1,"fromOutput":0,"toInput":0,"toNode":0}],"nodes":[{"inputs":[[0,0,0,0],[0,0,0,0],[0.0,0.0,0.0],0.0],"is_active_output":true,"name":"Material Output","outputs":[],"type":"OUTPUT_MATERIAL_BL"},{"inputs":[[0.0,0.0,0.0,1.0],0.0,0.5,1.4500000476837158,1.0,[0.0,0.0,0.0],0.0,0.0,[1.0,0.20000000298023224,0.10000000149011612],0.05000000074505806,1.399999976158142,0.0,0.5,[1.0,1.0,1.0,1.0],0.0,0.0,[0.0,0.0,0.0],0.0,0.0,0.029999999329447746,1.5,[1.0,1.0,1.0,1.0],[0.0,0.0,0.0],0.0,0.5,[1.0,1.0,1.0,1.0],[1.0,1.0,1.0,1.0],0.0,0.0,1.3300000429153442],"is_active_output":false,"name":"Principled BSDF","outputs":[[0,0,0,0]],"type":"BSDF_PRINCIPLED_BL"}]}}},"name":"Anillo"},{"alphaMode":"OPAQUE","extensions":{"S8S_v3d_materials":{"gtaoVisible":true,"materialIndex":0,"nodeGraph":{"edges":[{"fromNode":0,"fromOutput":0,"toInput":0,"toNode":1}],"nodes":[{"inputs":[[0.800000011920929,0.800000011920929,0.800000011920929,1.0],0.0,0.5,1.5,1.0,[0.0,0.0,0.0],0.0,0.0,[1.0,0.20000000298023224,0.10000000149011612],0.05000000074505806,1.399999976158142,0.0,0.5,[1.0,1.0,1.0,1.0],0.0,0.0,[0.0,0.0,0.0],0.0,0.0,0.029999999329447746,1.5,[1.0,1.0,1.0,1.0],[0.0,0.0,0.0],0.0,0.5,[1.0,1.0,1.0,1.0],[1.0,1.0,1.0,1.0],0.0,0.0,1.3300000429153442],"is_active_output":false,"name":"BSDF Principista","outputs":[[0,0,0,0]],"type":"BSDF_PRINCIPLED_BL"},{"inputs":[[0,0,0,0],[0,0,0,0],[0.0,0.0,0.0],0.0],"is_active_output":true,"name":"Material","outputs":[],"type":"OUTPUT_MATERIAL_BL"}]}}},"name":"Blanco Nave.002"},{"alphaMode":"OPAQUE","extensions":{"S8S_v3d_materials":{"gtaoVisible":true,"materialIndex":0,"nodeGraph":{"edges":[{"fromNode":1,"fromOutput":0,"toInput":0,"toNode":0}],"nodes":[{"inputs":[[0,0,0,0],[0,0,0,0],[0.0,0.0,0.0],0.0],"is_active_output":true,"name":"Material","outputs":[],"type":"OUTPUT_MATERIAL_BL"},{"distribution":"BECKMANN","inputs":[[1.0,1.0,1.0,1.0],1.0,1.4500000476837158,[0.0,0.0,0.0]],"is_active_output":false,"name":"BSDF Refractivo","outputs":[[0,0,0,0]],"type":"BSDF_REFRACTION_BL"}]}}},"name":"Material"},{"alphaMode":"OPAQUE","extensions":{"S8S_v3d_materials":{"gtaoVisible":true,"materialIndex":0,"nodeGraph":{"edges":[{"fromNode":0,"fromOutput":0,"toInput":0,"toNode":1}],"nodes":[{"inputs":[[0.005646836012601852,0.00980291422456503,0.17247739434242249,1.0],0.0,0.5,1.5,1.0,[0.0,0.0,0.0],0.0,0.0,[1.0,0.20000000298023224,0.10000000149011612],0.05000000074505806,1.399999976158142,0.0,0.5,[1.0,1.0,1.0,1.0],0.0,0.0,[0.0,0.0,0.0],0.0,0.0,0.029999999329447746,1.5,[1.0,1.0,1.0,1.0],[0.0,0.0,0.0],0.0,0.5,[1.0,1.0,1.0,1.0],[1.0,1.0,1.0,1.0],0.0,0.0,1.3300000429153442],"is_active_output":false,"name":"BSDF Principista","outputs":[[0,0,0,0]],"type":"BSDF_PRINCIPLED_BL"},{"inputs":[[0,0,0,0],[0,0,0,0],[0.0,0.0,0.0],0.0],"is_active_output":true,"name":"Material","outputs":[],"type":"OUTPUT_MATERIAL_BL"}]}}},"name":"Material.001"},{"alphaMode":"OPAQUE","extensions":{"S8S_v3d_materials":{"gtaoVisible":true,"materialIndex":0,"nodeGraph":{"edges":[{"fromNode":0,"fromOutput":0,"toInput":0,"toNode":1}],"nodes":[{"inputs":[[0.8001489639282227,0.014774605631828308,0.019366776570677757,1.0],0.0,0.5,1.5,1.0,[0.0,0.0,0.0],0.0,0.0,[1.0,0.20000000298023224,0.10000000149011612],0.05000000074505806,1.399999976158142,0.0,0.5,[1.0,1.0,1.0,1.0],0.0,0.0,[0.0,0.0,0.0],0.0,0.0,0.029999999329447746,1.5,[1.0,1.0,1.0,1.0],[0.0,0.0,0.0],0.0,0.5,[1.0,1.0,1.0,1.0],[1.0,1.0,1.0,1.0],0.0,0.0,1.3300000429153442],"is_active_output":false,"name":"BSDF Principista","outputs":[[0,0,0,0]],"type":"BSDF_PRINCIPLED_BL"},{"inputs":[[0,0,0,0],[0,0,0,0],[0.0,0.0,0.0],0.0],"is_active_output":true,"name":"Material","outputs":[],"type":"OUTPUT_MATERIAL_BL"}]}}},"name":"Rojo nave"},{"alphaMode":"OPAQUE","extensions":{"S8S_v3d_materials":{"gtaoVisible":true,"materialIndex":0,"nodeGraph":{"edges":[{"fromNode":0,"fromOutput":0,"toInput":0,"toNode":1}],"nodes":[{"inputs":[[0.8001489639282227,0.014774605631828308,0.019366776570677757,1.0],0.0,0.5,1.5,1.0,[0.0,0.0,0.0],0.0,0.0,[1.0,0.20000000298023224,0.10000000149011612],0.05000000074505806,1.399999976158142,0.0,0.5,[1.0,1.0,1.0,1.0],0.0,0.0,[0.0,0.0,0.0],0.0,0.0,0.029999999329447746,1.5,[1.0,1.0,1.0,1.0],[0.0,0.0,0.0],0.0,0.5,[1.0,1.0,1.0,1.0],[1.0,1.0,1.0,1.0],0.0,0.0,1.3300000429153442],"is_active_output":false,"name":"BSDF Principista","outputs":[[0,0,0,0]],"type":"BSDF_PRINCIPLED_BL"},{"inputs":[[0,0,0,0],[0,0,0,0],[0.0,0.0,0.0],0.0],"is_active_output":true,"name":"Material","outputs":[],"type":"OUTPUT_MATERIAL_BL"}]}}},"name":"Rojo nave.001"},{"alphaMode":"OPAQUE","extensions":{"S8S_v3d_materials":{"gtaoVisible":true,"materialIndex":0,"nodeGraph":{"edges":[{"fromNode":1,"fromOutput":0,"toInput":0,"toNode":0}],"nodes":[{"inputs":[[0,0,0,0],[0,0,0,0]],"is_active_output":true,"name":"World Output","outputs":[],"type":"OUTPUT_WORLD_BL"},{"inputs":[[0.05087608844041824,0.05087608844041824,0.05087608844041824,1.0],1.0],"is_active_output":false,"name":"Background","outputs":[[0,0,0,0]],"type":"BACKGROUND_BL"}]}}},"name":"Verge3D_Environment_World"}],"meshes":[{"extensions":{"S8S_v3d_mesh":{"colorLayers":{},"uvLayers":{"MapaUV":"TEXCOORD_0"}}},"name":"Esfera","primitives":[{"attributes":{"NORMAL":2,"POSITION":1,"TEXCOORD_0":3},"indices":0,"material":5,"mode":4},{"attributes":{"NORMAL":6,"POSITION":5,"TEXCOORD_0":7},"indices":4,"material":1,"mode":4},{"attributes":{"NORMAL":10,"POSITION":9,"TEXCOORD_0":11},"indices":8,"material":0,"mode":4}]},{"extensions":{"S8S_v3d_mesh":{"colorLayers":{},"uvLayers":{"MapaUV":"TEXCOORD_0"}}},"name":"Esfera.002","primitives":[{"attributes":{"NORMAL":14,"POSITION":13,"TEXCOORD_0":15},"indices":12,"material":3,"mode":4},{"attributes":{"NORMAL":18,"POSITION":17,"TEXCOORD_0":19},"indices":16,"material":4,"mode":4}]},{"extensions":{"S8S_v3d_mesh":{"colorLayers":{},"uvLayers":{"MapaUV":"TEXCOORD_0"}}},"name":"Esfera.005","primitives":[{"attributes":{"NORMAL":22,"POSITION":21,"TEXCOORD_0":23},"indices":20,"material":3,"mode":4},{"attributes":{"NORMAL":26,"POSITION":25,"TEXCOORD_0":27},"indices":24,"material":4,"mode":4}]},{"extensions":{"S8S_v3d_mesh":{"colorLayers":{},"uvLayers":{"MapaUV":"TEXCOORD_0"}}},"name":"Esfera.006","primitives":[{"attributes":{"NORMAL":30,"POSITION":29,"TEXCOORD_0":31},"indices":28,"material":3,"mode":4},{"attributes":{"NORMAL":34,"POSITION":33,"TEXCOORD_0":35},"indices":32,"material":4,"mode":4}]},{"extensions":{"S8S_v3d_mesh":{"colorLayers":{},"uvLayers":{"MapaUV":"TEXCOORD_0"}}},"name":"Esfera.007","primitives":[{"attributes":{"NORMAL":38,"POSITION":37,"TEXCOORD_0":39},"indices":36,"material":3,"mode":4},{"attributes":{"NORMAL":42,"POSITION":41,"TEXCOORD_0":43},"indices":40,"material":4,"mode":4}]},{"extensions":{"S8S_v3d_mesh":{"colorLayers":{},"uvLayers":{"MapaUV":"TEXCOORD_0"}}},"name":"Plano","primitives":[{"attributes":{"NORMAL":46,"POSITION":45,"TEXCOORD_0":47},"indices":44,"material":2,"mode":4}]}],"nodes":[{"extensions":{"S8S_v3d_lights":{"light":0},"S8S_v3d_node":{"frustumCulling":true,"groupNames":["Collection"],"hidden":false,"hidpiCompositing":false,"objectColor":[0.0,0.0,0.0,0.0],"objectIndex":0,"renderOrder":0,"useCastShadows":true}},"name":"Light","rotation":[-0.28416627645492554,0.7269423007965088,0.34203392267227173,0.5232754945755005],"scale":[1.0,0.9999998807907104,0.9999998807907104],"translation":[4.076245307922363,5.903861999511719,-1.0054539442062378]},{"extensions":{"S8S_v3d_node":{"frustumCulling":true,"groupNames":["Collection"],"hidden":false,"hidpiCompositing":false,"objectColor":[1.0,1.0,1.0,1.0],"objectIndex":0,"renderOrder":0,"useCastShadows":true,"useShadows":true}},"mesh":2,"name":"Esfera.001","rotation":[0.0,0.7071067690849304,-0.0,0.7071067690849304],"scale":[1.0,1.9432239532470703,1.0],"translation":[5.0917582511901855,0.8297671675682068,0.05420637130737305]},{"extensions":{"S8S_v3d_node":{"frustumCulling":true,"groupNames":["Collection"],"hidden":false,"hidpiCompositing":false,"objectColor":[1.0,1.0,1.0,1.0],"objectIndex":0,"renderOrder":0,"useCastShadows":true,"useShadows":true}},"mesh":3,"name":"Esfera.003","rotation":[-0.0,-1.0,0.0,1.6292068494294654e-07],"scale":[1.0,1.9432239532470703,1.0],"translation":[0.06375837326049805,0.829767107963562,-5.093398571014404]},{"extensions":{"S8S_v3d_node":{"frustumCulling":true,"groupNames":["Collection"],"hidden":false,"hidpiCompositing":false,"objectColor":[1.0,1.0,1.0,1.0],"objectIndex":0,"renderOrder":0,"useCastShadows":true,"useShadows":true}},"mesh":5,"name":"Suelo","scale":[51.07658386230469,51.07658386230469,51.07658386230469]},{"extensions":{"S8S_v3d_node":{"frustumCulling":true,"groupNames":["Collection"],"hidden":false,"hidpiCompositing":false,"objectColor":[1.0,1.0,1.0,1.0],"objectIndex":0,"renderOrder":0,"useCastShadows":true,"useShadows":true}},"mesh":1,"name":"Esfera.002","scale":[1.0,1.9432239532470703,1.0],"translation":[-0.055847033858299255,0.8297672271728516,5.0822062492370605]},{"camera":0,"extensions":{"S8S_v3d_node":{"frustumCulling":true,"groupNames":["Collection"],"hidden":false,"hidpiCompositing":false,"objectColor":[0.0,0.0,0.0,0.0],"objectIndex":0,"renderOrder":0,"useCastShadows":true}},"name":"Camera","rotation":[-0.257024884223938,0.33376967906951904,0.10389832407236099,0.9009668231010437],"scale":[1.0,0.9999998807907104,0.9999998807907104],"translation":[29.813941955566406,39.52018737792969,31.416824340820312]},{"extensions":{"S8S_v3d_node":{"frustumCulling":true,"groupNames":["Collection"],"hidden":false,"hidpiCompositing":false,"objectColor":[1.0,1.0,1.0,1.0],"objectIndex":0,"renderOrder":0,"useCastShadows":true,"useShadows":true}},"mesh":0,"name":"Esfera","scale":[1.9528158903121948,12.102340698242188,1.9528158903121948],"translation":[0.0,14.181682586669922,-0.0]},{"extensions":{"S8S_v3d_node":{"frustumCulling":true,"groupNames":["Collection"],"hidden":false,"hidpiCompositing":false,"objectColor":[1.0,1.0,1.0,1.0],"objectIndex":0,"renderOrder":0,"useCastShadows":true,"useShadows":true}},"mesh":4,"name":"Esfera.004","rotation":[0.0,-0.7071065902709961,-0.0,0.7071069478988647],"scale":[1.0,1.9432239532470703,1.0],"translation":[-5.083846569061279,0.8297670483589172,-0.0653986930847168]},{"extensions":{"S8S_v3d_lights":{"light":1},"S8S_v3d_node":{"frustumCulling":true,"groupNames":["Collection"],"hidden":false,"hidpiCompositing":false,"objectColor":[1.0,1.0,1.0,1.0],"objectIndex":0,"renderOrder":0,"useCastShadows":true}},"name":"Sol","rotation":[-0.7071067690849304,0.0,0.0,0.7071067690849304],"scale":[1.0,0.9999999403953552,0.9999999403953552],"translation":[17.14267921447754,32.435646057128906,18.909420013427734]}],"scene":0,"scenes":[{"extensions":{"S8S_v3d_scene":{"aaMethod":"AUTO","iblEnvironmentMode":"PMREM","physicallyCorrectLights":true,"pmremMaxTileSize":512,"shadowMap":{"esmDistanceScale":1.0,"renderReverseSided":false,"renderSingleSided":true,"type":"PCFPOISSON"},"toneMapping":{"look":"NONE","type":"agxBlender"},"worldMaterial":6}},"extras":{"animFrameRate":24,"coordSystem":"Z_UP_RIGHT"},"name":"Scene","nodes":[0,5,6,4,1,2,7,3,8]}]}
